<mxfile host="app.diagrams.net" modified="2022-06-22T14:22:01.130Z" agent="5.0 (Windows NT 10.0; Win64; x64) AppleWebKit/537.36 (KHTML, like Gecko) Chrome/102.0.0.0 Safari/537.36" etag="ibPwko3YL10OME4UpfRG" version="20.0.2" type="github">
  <diagram id="uACBIN22wK5jjWGmalzL" name="Page-1">
    <mxGraphModel dx="2521" dy="851" grid="1" gridSize="10" guides="1" tooltips="1" connect="1" arrows="1" fold="1" page="1" pageScale="1" pageWidth="1169" pageHeight="827" math="0" shadow="0">
      <root>
        <mxCell id="0" />
        <mxCell id="1" parent="0" />
        <mxCell id="eyDXELpyfhoJ8ZzLuacM-5" style="edgeStyle=orthogonalEdgeStyle;rounded=0;orthogonalLoop=1;jettySize=auto;html=1;exitX=1;exitY=0.5;exitDx=0;exitDy=0;" parent="1" source="Df6rYxIK3cVN9kQUtpdk-11" edge="1">
          <mxGeometry relative="1" as="geometry">
            <mxPoint x="150" y="170" as="sourcePoint" />
            <mxPoint x="320" y="240" as="targetPoint" />
          </mxGeometry>
        </mxCell>
        <mxCell id="eyDXELpyfhoJ8ZzLuacM-12" style="edgeStyle=orthogonalEdgeStyle;rounded=0;orthogonalLoop=1;jettySize=auto;html=1;exitX=0.5;exitY=1;exitDx=0;exitDy=0;entryX=0.5;entryY=0;entryDx=0;entryDy=0;" parent="1" source="eyDXELpyfhoJ8ZzLuacM-2" target="eyDXELpyfhoJ8ZzLuacM-9" edge="1">
          <mxGeometry relative="1" as="geometry" />
        </mxCell>
        <mxCell id="eyDXELpyfhoJ8ZzLuacM-2" value="VIGO-BAS" style="ellipse;whiteSpace=wrap;html=1;aspect=fixed;" parent="1" vertex="1">
          <mxGeometry x="470" y="240" width="80" height="80" as="geometry" />
        </mxCell>
        <mxCell id="eyDXELpyfhoJ8ZzLuacM-7" style="edgeStyle=orthogonalEdgeStyle;rounded=0;orthogonalLoop=1;jettySize=auto;html=1;exitX=1;exitY=0.5;exitDx=0;exitDy=0;entryX=0;entryY=0.5;entryDx=0;entryDy=0;" parent="1" target="eyDXELpyfhoJ8ZzLuacM-2" edge="1">
          <mxGeometry relative="1" as="geometry">
            <mxPoint x="360" y="280" as="sourcePoint" />
          </mxGeometry>
        </mxCell>
        <mxCell id="eyDXELpyfhoJ8ZzLuacM-6" style="edgeStyle=orthogonalEdgeStyle;rounded=0;orthogonalLoop=1;jettySize=auto;html=1;entryX=0.5;entryY=1;entryDx=0;entryDy=0;exitX=1;exitY=0.5;exitDx=0;exitDy=0;" parent="1" source="Df6rYxIK3cVN9kQUtpdk-8" edge="1">
          <mxGeometry relative="1" as="geometry">
            <mxPoint x="160" y="430" as="sourcePoint" />
            <mxPoint x="320" y="320" as="targetPoint" />
          </mxGeometry>
        </mxCell>
        <mxCell id="eyDXELpyfhoJ8ZzLuacM-8" value="Azure AD" style="aspect=fixed;html=1;points=[];align=center;image;fontSize=12;image=img/lib/azure2/identity/Azure_Active_Directory.svg;" parent="1" vertex="1">
          <mxGeometry x="760" y="248" width="70" height="64" as="geometry" />
        </mxCell>
        <mxCell id="eyDXELpyfhoJ8ZzLuacM-13" style="edgeStyle=orthogonalEdgeStyle;rounded=0;orthogonalLoop=1;jettySize=auto;html=1;" parent="1" source="eyDXELpyfhoJ8ZzLuacM-9" target="eyDXELpyfhoJ8ZzLuacM-8" edge="1">
          <mxGeometry relative="1" as="geometry" />
        </mxCell>
        <mxCell id="eyDXELpyfhoJ8ZzLuacM-9" value="Active Directory" style="aspect=fixed;perimeter=ellipsePerimeter;html=1;align=center;shadow=0;dashed=0;spacingTop=3;image;image=img/lib/active_directory/active_directory.svg;" parent="1" vertex="1">
          <mxGeometry x="485" y="427.5" width="50" height="42.5" as="geometry" />
        </mxCell>
        <mxCell id="Df6rYxIK3cVN9kQUtpdk-2" value="Personalressurser: Ansatt, Politiker, Andre" style="text;html=1;resizable=0;autosize=1;align=center;verticalAlign=middle;points=[];fillColor=none;strokeColor=none;rounded=0;" vertex="1" parent="1">
          <mxGeometry x="190" y="130" width="250" height="30" as="geometry" />
        </mxCell>
        <mxCell id="Df6rYxIK3cVN9kQUtpdk-3" value="Elever" style="text;html=1;resizable=0;autosize=1;align=center;verticalAlign=middle;points=[];fillColor=none;strokeColor=none;rounded=0;" vertex="1" parent="1">
          <mxGeometry x="175" y="440" width="60" height="30" as="geometry" />
        </mxCell>
        <mxCell id="Df6rYxIK3cVN9kQUtpdk-4" value="User: &lt;br&gt;+brukernavn" style="text;html=1;resizable=0;autosize=1;align=center;verticalAlign=middle;points=[];fillColor=none;strokeColor=none;rounded=0;" vertex="1" parent="1">
          <mxGeometry x="525" y="335" width="90" height="40" as="geometry" />
        </mxCell>
        <mxCell id="Df6rYxIK3cVN9kQUtpdk-5" value="User: &lt;br&gt;+epostadresse&lt;br&gt;" style="text;html=1;resizable=0;autosize=1;align=center;verticalAlign=middle;points=[];fillColor=none;strokeColor=none;rounded=0;" vertex="1" parent="1">
          <mxGeometry x="580" y="460" width="100" height="40" as="geometry" />
        </mxCell>
        <mxCell id="Df6rYxIK3cVN9kQUtpdk-7" value="" style="shape=image;imageAspect=0;aspect=fixed;verticalLabelPosition=bottom;verticalAlign=top;labelBackgroundColor=#FF36A1;image=https://www.fintlabs.no/_media/fint-by-vigo.svg;" vertex="1" parent="1">
          <mxGeometry x="260" y="243.6" width="105.99" height="68.4" as="geometry" />
        </mxCell>
        <mxCell id="Df6rYxIK3cVN9kQUtpdk-8" value="" style="shape=image;imageAspect=0;aspect=fixed;verticalLabelPosition=bottom;verticalAlign=top;labelBackgroundColor=#FF36A1;image=data:image/png,iVBORw0KGgoAAAANSUhEUgAAANUAAABYCAYAAABibrKFAAAAAXNSR0IArs4c6QAAIxRJREFUeAHtXQlgE0X336Rpkt4nUCi9uMELAREEq4Icwsehcii3Nyp8CAryqSAqhygK4icif5GKcigiHyByCIggyCkUUApCKRQKbaFn2ubO//e22bjZbNK0TQvIDEznevPmzZt5897M7G4UHHPXJwee/cw/xKSfbYhqNMIcEhNhU6kVKl1umTb37E5l6ZUXC5f/J/36JJxRpWAsuP44EDri/TFl9e98zxbZMEDtp+D8lOU02mwcZ4E3lZZYtef2rtYFmodzH//bcP314OamiAnVdTT+oUOmtzdFN1tljL09XqtScEoPo2O2QsDyL+oDMw+9XrB04ofXUTduelI8DNtNz5taY0DEwHfDTBFRq0sT7u6iUcPMg3biHbQSR1EKyQlx0aiZLMi/eOxiQG764Pxlk3bzcOzPNeWAaHiuKR03beNhw+fO1iXcNV4VVsdfTWaeIDjecMQOSzJnNJps/mf27lIacx4pXvraVW+qM5ia4QATqprha4VYQx6b2dfQ4NYltnpNIzXQTAoFhoI2TUJIGIS4sKmiPIIRNBelRc6KMpMuz6w9u39B0ZcvjRMVsWgtcoAJVS0ym5qCqRdviKy/1pDY7g6tv59CSYLjzlGRbDmkCnsqF2cXSovFylmyTxdqs/54tnDF5G9d4FhGjXLAw4jWaLs3H/Jvv/UL2Zj9BfZNw9RBoUoVnUJINZPAFRIkT6cUApzVrrIIj4wzWWw25dmDJ/zyzzxc/M20UzIgLKsGOMCEqgaYKkUZNnz26NKY1h8oo+IC1SpsnAQhEMw7QRtRyHsphgrSJFwCThlQY1mJ1f/s3u91QZZh7AhehkE+zmJC5WOGitGFDXm7rTGiyXfmuNaJjn2TGEDQVJRHmkkQLjGMt3FSVrxwiexCwmdvg/ZblrwsvSbz0JTCryfN8RYtg6s8B5hQVZ5nFdfoOykkKLrRKkNS++4ajdb9vom4r4Dm8sbUq7jVcggSIhIwPkREECx7fQsJ3oXjWZr804/lf/3aLm/RMjjvOcCEynteeQUZOvT96WVxbSepwuv5q+jUzq4p+MpCnEIqU8LXlKM26IaYRpji5AQBQ2gyGm1+Z/f/qjTmPsyO4MvZ46u/TKh8xMmIwe8+VBbTdKktpkU0PVrEO9Ek5tM0uUmQ+PJaYj21acENMckV6KGTQTNlwVuhtZT6AnPQ+X2fFi19+d/lRLO/1eVALY1sdcm8fusHDHw9VhHeeK05sV0btUrFXzfJUksCRtqJwlp0kCGOTD4zBMsKzUWyJefUV8/iCP7o6KJvXl8pV87yvOdA7Y6w93Rd/5A2myJk5PzF+sS7RqoDQ5Wy9028AGEa+6l8u2/ywB3aMvHPBSJC2shJiEhrWSFl5OWdLfDC72l++en92RG8PIO8yWVC5Q2XJDDhj80cXhrbeoFfdHwwf98kKXckVX52Yao5NpMQkTYyywmRgxBJRDAJSbhI8CktckpjqTXo/P41xSljBqLcuVAEx6LyHKi50ZZv74bPDRs0Y5D+todWqtUaheMQQpiUwgQlzUT7phow9agpXhMhQmG1ZrwVey2zGWMiPw2CMn7bVbL42eQbftBquQMYfeYqwwFFeL2xan+1s0CJhUflbz+IqAxW97AkRGTG8ZoIQoT/vnNKaFJ/7PNMRlnp1Ndr0dF3jd08mJhQVXKsVZxVT29b8E7QUEJImWYTZj4mKz05IRa28hoV/hWEiD9c8LUQObVOkoqekAnoRt0pTAZHV52qsoRHDmDkmasMB0KMBW8r9UWeJxuZVUYIF9lnXjgCM+Ccu9Rk43TwZYgba0ygSPWBPgNeGKbQw6GFf96FIi/IZyASDjChkjCkomT6kom/JuT/3inw8vEMwNr4fRWpF0FbCSEhIq1lgKfJK3J0sGBEFi9Exr+FiMy8GnV8w6DHBE9tCbQK9NtD/7zzZnXmn4qy4CRNjdLzD0XOzL9KDiwuomg67rPZbE2aPzd/9JXI5rNNYbFBPBrxJBXw2vAaBqwo/h8ufi3Yx9S07AhNO0LSRnQg4V4r8aDQwFZNzun8suDEKC6wvEsOHCziNQeYUHnNKmdACBepn08gXIsSnl+4uCDmjiE2dbAf7aPoSYXygwXxXREmNu2xFJjcahxm0DN/Ne1IyEmYJJrSpVmbFfdTBw9rczP65yV22wQVFuUCwzK85kAtjKzXtNyQgBAu07lPR49sVLCviV/6/oO6MqOtxGTlDLDl6HEgF61E2sKA0zbacwmazec9R6tk4un15UJlN+ucTFV723Wuplp7FKydXPr5M23z1s7I9DkpNyFCpql8MOh2kzBj8Zjm/UI1Macm5IwIyoxo64qZ9jR0IUwai/ZbFmgRFYbAH5rLV440kwneVZydWtCU5nBPWVcZhvbpyaWdT9JsdipliepwgGmq6nBPUrdljPWLAYmXgs63n83Nts7kAnVZztqI7lgF7USCRXESgrLSciGT4KtUkk4c9WX0BRjghfAK7QghIUNcYTZw3fO/say7dY/uqeEvaaKS2moCAjSQcOZ8xQGmqXzFSeBpHKVwXJZOan6EG2t+hRt5tAe3WjuAs6oCy1si8098YCBMejIH6XtjtN/ygzbz1pEAUV3aN5GgkhNCwi0IL7Kb5u2xTY3bo2vWZ0xQcFh0sFqj5cHRHpAw5ysOMKHyFSeBJ1DD2WdpOdIAlZn7ts0G7mThTm5Q2uPc0fAHMMlhHAiC5NI25jbtg0io1GrP71sRDjIhae8kPGYk4JWEoUUZ3KsBKw1d+/S1BTSYEhIQGAhZswsg0ZC9v5MLKSyjyhxg5l+VWedaMavAmueay3HNw4q51LsXcSuDXuOiCtPkQMrzBGEgrVMGU44uaOmJWbEjGBIkKucPO1BIeTLez1jMDSv+3Lqh3W5dj0FTNGFJ92gDg4KcBQrVOyo39Hh/cMSt4mZYvOocYEJVdd651PzjknJ1ng5PQ9Cxn4wb3PAsd+WuN7mXjfM5ddkVWUFwEg5+v1Xyt/DQY0W8MNG+SaYNIQ9n+u3zN9k2159XPG7QQFtE29HBYWFhOBNxNUzOHNiQH2X4U9Mo0tBIhmSWVQUOiGyAKtRmVZw4gDsrxc43mx1qUZ+7MwBbo2AtfSTTCcSRyDNouMdS+3Jbg/twNqXvTv/qFR7n3q+70tiiTX+bJi5ZEyCjmYiIosICw6WfZxXda1kela9XFiY0s8YoBnFGbtyOPyCxrcoJVRRxH90f5iCaRbziANNUXrHJOyA6Wr/v7b/a7DxpnXOlhNNfhdbS05ZHxkVqDNyW9qu4PXVf5hrl761YawlaSAgJpxBHqCnJ5Sab51o23b2vpFWvWeqQpt01gcHBLqYeBN96fOd3uZGb7rEmW5fXyTJEXy67e+4YXqBk6GRZleeAqz1QeRyshogD/WZyU7+ynWm091JUci//yI9vaWBrrzcpFMF4io6uqKSuQ3Qudyb6I+6Tv1py/ykYwRUHJ0hB/k6LhEjIxBG57aGy/yneaXakxHb7BK0qqnFQsNbpvEQA5c6dTivS7n/F3FWbWqfI6leaFjPhbFiHcUlKf5WO46RfiVbgnJ+5qnDAjXFSFVSsTv+ZXH/c764hToCxOph+U/tkJ125K1Y1LyaUiwzCgV4QTEJ3zmRTcs8c7sJ9rRzAWdQh7sAc+U0L93ILk1YZI1o+alXGdcMhhKtmIuASXbExY+sH+Z2NX0T7+9kUJ8x3pIf9a2miKiiSX1RBZ68miXEbecRk/im577gWwdO5E7p23Lz7f3M0yCJeccD9CHtVnQGJOdB3BrcdyuQBcR4m7BE/k2rsyNLE0W0aKgbj2F0VAq2l9nfP+gxdMDf46CPc/rAHIZ0i9UaaCghDizO4WVFfWe9vEqU3tHgxUBsSiYcyZPdltmN7frjSKuONwAbaq0EXS0JyyzotsAQn3RfjdKRus/Vo2ih+C0/3+F+GcHPvWy7uA4tXjgPuR7ZyeBg0ONBnhiIH+5w6UmaAyVaors86XGj4Ted62kXN6ymaaaAjQgI8/7Db73kR3JTTydyfpkROr9ByMVwONzTqAPdYUnbZlSaT1KroVn5aN6behXPpxaZfJ+s7Bv4WrTMqjenhQ86HP/BWUzXdf0ncB2vGfffp+NWD7I9bSUpZsrIcYEJVWY55gO8zVXnWprQlKlQyx92oByWTDYZPGJDVKK5dkt+UqCAuiMzBQNd5LtuKzqQyn48eZjHG99OQqaeU+RhnaWmJ6dS2BVc7l/43KsjfqvqztFFG4L+W1wsIj7U/0iFFbbs8+L3bo/Bgxl2HPytIlZaydOU5ILItKl+Z1XDmQNMuilusBmVb/NYG/+AEhEjqgiFuj/4Zks8dNVqGheQGNIoIVCTi+on/9UTxz1BJK2aZGxoyb5mn9mtwt8rliQgAk5Y5vn/7lbBfh9ru8tsedUWvLTrf8sOrEV1nJqgDw2RtQ6vNkvpKyoArV4uzEzilenr2wbJiabssXXkOuA575XGwGnYO9J3NNbDqFakWgzKaHhJXqvEFWH/SWjKaS8EZwPxZ911IOtw5VrUQrwXWJ40VhI80SYWxwBRsyrxzsX9AaLQsry9nXdAV7Hi9JFm7va7BrDD/qe6ZEdVzXlOtVl45od3C3Wmb1324dnxPq80apbRxk1IXlXwgi5xlVpoDTKgqzTLPFfrO4prYLIplFoOivc0MAcFNoEJt5ZR+MoJVjuovhUL14uDsxH4dGnFPh2oVGtpr0Z5LcGejR1gszUa6WBUGg8F8/KfPr3Qs/iAiQmPSpBU3yFR2TwkLqdccX/eUv4IsKM1b/2rKgOjcwqyO2Ocd5JSq0cc+LTwktMXC6nPAZaCqj/LmxnByG5c3ZBv3Rc4eWw7nx3WCgGltJvqiGQ4liNuuyxjesrUOPx6cd/rURf/ng/XqNuEBXIzZolD4A55+EKQg4QmlLaCeE2NPHN5zRbVtuKmTakOdEqNf2cnY17Ijen4UHxgeo3E62bPXgkinfbLx9S0frX2lX6lBFwaYlx+tP3H0t3M2ZzkhZolqc8B1iKuNkiEQOIAj9nowAD+0GrkhViNYjf+8ScgfZLhqLpIf3BG91vNcY8s9Sdzs+mHKcDIHs9sv5qxBiTza3Ozs0ktb3yp8QLO+Lt6O4lJNHTKien+WFBASji9Puw4n8kqPndu76p1vnr7fZDYlwLZcFqi1vbzvo5JsgU4W+pYDrqPgW/wMGzjQfwbX1WxTLMAhRjMb3kmkqyclTEIFNjNyDrKxT6HzHzdUnzCxQ5Kyn+XOl5VldbvZft/6VU6H/FlhdQP0gScLoy6bkxeqwxPaRco9KEt49aaSza9+OViRmXu6O1pNg0H4Quoi3c9ybbI833GACZXveOkR09j5nOa8jnvVYlT8x2JUavmDDBxi8AcZMp8rh2DRF8vmtz+b8MPd8dEfN1BmNowPyAnNLfUvOVN3dE7MvWOTAgIC5NtUcGeX/TLv5+93LxwMZabEE7vTmzeIn7Nq2h94vJ25muYAE6qa5rAEv/0g4xOYg92t2GuRSehHWsv93dYFCOCEpzSD/UIatn4zrHmPFsFhUbJ3VGjKmJn714pXlz7WTm8suQXpDX5K/zFHFhZkSMhgyRrkABOqGmSuJ9R9ZnCDOKtiHo7f69voTXic9in95U3COsGNuSc7LrVGhNVVOl6BlyA3W007pywblnPyQuqjENQLSoVyXOrCYv45RAkoS9YwB5hQ1TCDPaEfOp8L1RUrp+OjSi/gCJ4/iSVzUHq3NapDiq1lfLJC7vk+mImXfjy0Yt3/bXl7AM4Y6d2neVxI8LSjc7LxdiNz14IDTKiuBdclbT4yg2uDg4zPzAZFO+ndVpAmmpvSd58Nz+w5jRVO9Sy5BVkrX1nycOOisoIOSO+Ghhp9dKHuuAQ9S9YyB5wGqpbbZs2JODANCurwTO55q0UxAyZhGH0kifZZ8XVv48b3Wue0h7LabAfeX/3Cif2nfx6CY/VCnKVPOvJp0RIIlvxxoqgdFq15Dshfu9d8u6wFCQem4WvRa1/nPtFqbS1UAbYVZAKS1irT4QMvglNweftObVkwYHbLmH1//Twcb4IsDVApmmPv9AUTKIFJ1z5kmuraj4EsBf1mcQ9azIoF0FpN33j051/KTMZL76x8JjJPl9MdAnQc2mn0kYXFu2Urs8xrygEmVNeU/Z4bp7utc8XcZKtJmXDuYuBFPEfYEcfr6yIbtFuwY9oO+rYzc9chB5hQXYeDIiWp/3tcY87Ehfg35Y6tGoRf5WGOcYBxgHGAcYBxgHGAcYBxgHGAcYBxgHGAcYBxgHGAcYBxgHGAcYBxgHGAcYBxgHGAcYBxgHGAcYBxgHGAcYBxgHHghuIAe0zphhquG49Y+iG8Bx98cJCd8hPbtm07euP1omKKu3fvnmyxWOqjv0WiTzZWXJFB/DM48NBDD2kw+InwWrPZfPnee+/NnTZtWo38Qv1zzz2nQjsr7Zx7F+E/UqggUJPRz4fwBsEJVZcuXT7E10yLtm7dOq0qUwb1xwBR27i4uOdTUlL0GLBQo9H4G3C++9NPP31VFZz/9Dpdu3ZNRx8Dwbc14PvztdHf/v37hxcXF49HW0/gy7YNETqslF27dlkwjqdBzzqM29pOnTr9VlNCVht9vdZt0EuKtJJMAVNjK0sMrXio8w58LAkU1YdANQe+VlartRelmZPlQD3wiHy4bKmPM2F+PQKBykB7U+HjgN4hUNQU8uj7GDRuEzFu2w8cOEDfumCuihzAwqRcAmZSOLyyOEwmUz/UCSccQt2goKA0rHhHkF4r5LHw2nEAtn5bCMo3GGMSFDPGJsXPz68HwuYImyHsAj8KZcsRFiLcAJePkLkqckAF8+MwzJFjYPxI4CCb12uHgRpBAxEeHv4/odK6devo51juFNIsvLYcgK3/JiigvTN9v2IIDgpWSSj6y57+8tlnn/XPyMiIkJSzZCU5wH+jAoJBmqYFVrW7va0P2LoQqh6AX7lq1SrRhxS8xcDgaokDXagdjPHB7du3SwXKiYRFixaZtmzZkuOUyRKV5gB/+gfzbRk01Xs4CSJttc8bLIAdAjgVBivFG3g5GGjIKHwHvCFw0Se4Lv34449XgI9WVK8c7emwEiehfiB+pjML9S/LVYTwK7AI1Adu8lmbN2++JAfnKQ8bd+W+ffsaoL3gBg0aZAh7SE913JURPe7KKL9Hjx53oJ0mGJeTmOT8J8d69+4dodfr+6KYvjwbCn8e/gz8VmifqwhdHGme06dP8z9ShTZPuwBUMaNv374hJSUlXcHLdsBLP5qlR/wi5tBpfIp6h9h8zM/Pd/QVMI6xtfexG+rGop4OfU1H+TEcbh30lqyBAwf6AX9H1L8PdeujHs3nbMT34BuJOzZu3Gi4FrgcHcYEXwcGddZoNPW9IQbwhwGvxerXUkw4Jm8QJgSdbs3AYM8Xl1G8V69eCTjMeAl1n4CXbojLwJDt8Os6d+78ufgECni7AO+KwMDApLKyMn8wchbQDYMX/4x7GgbnfZi0X1BbwE93JGMR/hvJxpRnd2Sifg6BnoJJ6/ajkz179myOfSMtHgOAoxlCfhECfXT8TKdlU9DWt4hXyoF3JcBHp38rwaPHpZVxaER8Gwu/Ijk5eRhO514F/FSktVJYpPOB5y3g+UimjENb51A3HjB0R9RKDsbbPJrEV69enQxck4CTBNvFocyABTIOcyiXCu2CzX/DHWVTwfMV4OliFCW7VEYGYDYieAm0npIrF/LAIzq+ngc6aFxcHMouYi5MhJCucCmUZPgCF/j8I2jhj9R584/aABEpCCJw3EqroUeHiXobELQGUIoUMCwsTIGyusDHr5Di8m7dujUF/v0op4m0wL5hvgOMbof0I6gzB2E8ykeJBYpwQKDUhBcC1R4CdRCw98NPAeO6AQ/t4eiCMRtli9HBKaivAp3rkfc+/BrADsTq1ZrgEf8Y/kVouH0Eh3IXN2rUKC1dDaBNEsptgB+Gdu5C/VZID0CFM2jrG7Q106WyjzLQ5h0QqLlobybiVvhf4RfDL0ATRBMJdwTK54EOsjLkHH8vBBgy79vKAXiTRwKVl5f3HWCnA1cotQ1P+7Hv4dch/ifhQdkhQaAoLdZUSIZDoHYhJIHKQJ314Oc8xOmQ5CxCqv8Qgo3Ef0rLOQjBaMD/AFgSKDp8OQyfAv85/AF4I8piMWeWgy+0GLl1vsQlNOKYUBERET9gFSLziwbHo+2NyTQCcBYw5CsBkTch6s1HZ2nV6gANd1FSh37Nbw38VAxggKTMkUT9lUj8Ao31xPr160sdBRx3BGXfgYk08G/s3LmzBcK2ENi2ggklgt0KOBrcjZi0zyKkSerkyLyDUHZt2LDhCRlT7wSA1wAHrbgvwwxdjIlEpphPHfpDmoX8dlgQT8K8PSduAEJyNxYGWtnpcOE98G019rc6MQxwvIN0b3gFJtlm9Ok5aNfVYhhv4hCo14Grvx02FWM/EFpAOOTgszFBY7FwhbvDh/oTUKZH3QmoOw9zyGEOgnY1BPADzJExgGt0/vz5VwH7lhQX6O8AmI8BQwrhAtGB/uwVwwGGrKfVgGkJ/xbSqYBZK4ahuDe4wOMW4Nv3FeES43ZoKgyGEZ1cjso9MFnqiYHEcVqxADcUeVvAmCxxmac48JIG64S662QEyqmqp4MP4AiDoIyVCBRfnwYJTH4DMGpkkNk2Q0ageFiYF5sA/xsSo/gMmT8YiMMyAuWAhJnzJtpSYvUd6Mj0cQQ0XoqPj+8tFShqBn3bh/6SGUwrfF1M/NsoLnbg9X7gIMEimChMSFp4DkAARvXp08fFmhDXFeLY/0Si7mRKA9dfoKeDVKCojMYV+9U/KC44LNYOwaE80DsDfJ0LPE75NP8gkK8gn/aK5Gi/5eJA/2xkkjIwYx4kSwWKKiDvBMamA3BdpTRonwuLxDHXKY8ccL2LwCMu8DjNG1w8Qvsfp4ZARIq9EdqryDqsJg+CSNrwp8gCuMkEvA2ezBXaUFbHrUBHc9whwGCnoR3aoOqxuv+fOzh7/gH0JbECGLfF0E4XUJgBHElugapfMMeTYAP9VlETjUVxRxQLyJuYzIORUUCZoJfM7SWlpaWXIGAL4W+nfHcOKzUtooL1MLsCetyhIYEsQuHH7gDATxq3XVQO2CZSONBJ5h6ZjlS+HPPgrBRGSAMXtcXvM2l8YLn0EMootOO6z55Hc8prXLt37+4pxiWNOwkVrcwglmzwkVJAIQ3pprJ8rCou6lSA8RCSedcPe6teHmA8FoG+454AUA4e2i4jzLQPkltwwJBQ1PF2xXaDiFbWBDdlvsjmJ5k7ROgrtc87xN3SgbH9Njg4OB7CRSYYb0YCPhT+OfgjmGTfwxyKt6NyCjDm91IG+GWJjIz8yqmwcgkywworqML3BzTVk9lX8XRQfdCyvAI8HBbVpQIM4B8Q4vbQgQs8WSYpc0mKcYEf97sAiDKUojgfReMp6NBtYPCd0jI6SkVef8CsqGjCSutSGsfeNKCpWPl+wCAuptM1ObgK8qR7MRdw0Idv+P892VwA7BlgThlFsS8JcgdTUT7aon2dpiK4qpbDxCHBd+vwBAt/smYHULkFRAFdzGNSz42KimoMuvvA/494hSJaiR6GP4px7yyDg/Z1pOEukZkmU+5tljdj58CPY3tpf2ivJDjHYiJkSEPw5gL6Z7Hn3yop9yUuJ9RSosnm5e+swMBRgDwshoa5QHuHAMAsEed7G6f7C+zJOsH2n4g6E3C69iRsezrF+hx26xpvBBWw2d60Bzg6Nq+2gxaLxuAOAyIykWgykqlHKzwJkgYhshQ7EPe5A15rx44ds7FP8SluCAZNtB/IkxmEdj5EP3rD0xXHcmzOW8IcKhEaRTmdMJJ2yBTyqhh6vQd3gz9CyMderUJaqJ/oH7UZB/ojhbr20Je4nFC7aCr7foXO3B+nOwYxNFb2EUj/gX3LQXF+ZeLoaBls/LdhRjTEID0NH4S2VkDALmKVnEZPuXvCB1hh5fEEVu0y0BKGAfkcApUJGqfAR2AxIVNsNvxo+EE4Yu+GMBW+Rhz1VXq14OuGMBan4P+F/n1GuNFmHCyJ5yTt8IsvyhxaRFLuVdIH9asy9jY54oi3cvkV5PG4wCuFJzgXTWUHTkHYNz09nfY+aykPploiJn4y8JGWqbaDcNHR72Ly2GO1hsCOh5+Ke6xRmNB9YKYcq3YjVURAtnxmZuYOVG8FQRqNVXGpfXV3wQjBK3LJvAEz0M8PRMJ0p7gLmID5SNPdY5w4v7bjaP8yaOGbxYEZ0XLCEw10Uo1rogYEg7rUB4dD+lJlcNHpIQ47eFxAkudAJBNx0VQE06RJEzINrtg1E18N+w4ygUi6v+YzfPgHmu8IVsuRGFgS2nC0u97+WokPW/EeFe5IRoPhrVHjSQj3EncCRRgBJzDa+wauQ0j7EfkVO2kJYhIxJun2dEO5o2kxbE3GQcdZEX7ZQxVROVdYWEhjwysO1E0TlyGdIUpXiGvPnj2xAi6EJ0V1XaKyQkUPVqJRuuXuTWYQ1cLkoQvfTZj8Xu1pXFryIgMTmJ4YGA9QepSJTKtr4kBDDzSsh4nq8RKcBB+wtMe64R1W9QB0Qri4dVqJ0cc91EHMATVW60evVWex6G4ALbSwEy2PVUQHFmcxDJnuDifB9bijwE1EjAs07HQDxmfLChWVoGIKCKfN+KN0c494U+Qt4WvV4B+0s9uOXhjgGmxNHjVoCEBfs6ChjPIQ5bm49O0JWLc89FT3eiuDOTUcNAmr+i9i+jABl4EfVspDOPlaaSv7fv8nogN8H4oF362GIRMeMLRAk7tMTwyVR8v/SnANqQ4uMV6Ku50Q0Br8nRUIe5ikFMy8KiVMisxH6TZ2PL/7CF+l0aCvf6BSgqdDE6zsweDN/Eojr8UK2Kt2xenqfEyYB6WHTgIZdEcHmDEY4//a83JxAPOlUE4hJiCZXV9QHH1ug0e7fqSnLCgtdtQGFuAu4jxfx3E/+hJw6uH9QcvP2NPeLm0D/YnFnng7yutTGcbzDTcL5DgU+wqXgwx3BxU8AIhJAbNnIEEb12VuCHMg8xShgUUno2BSrQMe/n5ICg8G3Yu8T9DufnyMJA2mphSkVtJYmb/Hpv0FmKAfY1V+Ct4sbpgOVnAtsAj9oVPQ4/CB4vLrJY6xiwYtYxGOPXPmTAkm21nw9iLozkKoRlksTjfvQBhBNCOvBH4QjvCdzD8qw7iNR59boy697tEDe+x04DsE+GNI0xP3DdHGPQANhnfMK2hAjydlhLsybtOmTSfB/2cxPovRbiPU3Qs6dmHM6K0JAzzthZMR8pYO6PoM82ixXBvIP+UFrnuBS+DPIne4xPgdnRdnCnFS+xiQ94A0FvEUIb8qIfDcinpzMTBFYMKvwHceeOmuwQ8hrSj3IKQBPo4Lzz6YyLy5gXStO2zat4HGOaDnFewh2kPY1yNOEzERxND3N2g1XoFL1KdwukSLTjv4685B41zC5MsB7fRCKV1w34qQxoE0joNe9Iue6v4S8LPsWslRJkSwEOqghe4HvnnIewLwtNfugpDXTAI+4CoU6lAI68YGHomzqh3H+HwFYTgPWj4Dsubw3TEm3SWI80GL21diBFhf4hJwehQqsjuhYGaAYXXIHBQqeQpxi20GE1ehTpoYDhPwY5zGHEXnB6KMXh3pSnjRcXqHilbPUwjfQDu0Gf17xO1IIISXwcRVGPhcMV65OOpvQP45uTJxHnD+BXroMMIgzqc4Hg6dCGH6EdFxoI2ePqBvutFT/PTaSW/QuZngwJ+twKGjeCXcC8BBvE+Xq4OyFchPRVjhwhITE6OHhnia8ADeyWTG+O0EzTHox10o64w48ZvMNvIFSGcgnQGe7gRshZepgKEL4WfwTtx0XH30RpxMryh4HXDRo2GHoNGI9w6HFzotAn3gd6qjwE0EvKTXSHhabrnlFj2EWRYSwvAL2mwJ4aJ5lAygBHjSvsJLipvsz//J1hdn+gIXaP4IOFcjLPh/tzdwtFXukk0AAAAASUVORK5CYII=;" vertex="1" parent="1">
          <mxGeometry x="-10" y="394.75" width="133.73" height="55.25" as="geometry" />
        </mxCell>
        <mxCell id="Df6rYxIK3cVN9kQUtpdk-11" value="" style="shape=image;imageAspect=0;aspect=fixed;verticalLabelPosition=bottom;verticalAlign=top;labelBackgroundColor=#FF36A1;image=data:image/jpeg,/9j/4AAQSkZJRgABAQEAYABgAAD/4REMRXhpZgAATU0AKgAAAAgABAE7AAIAAAAWAAAISodpAAQAAAABAAAIYJydAAEAAAAsAAAQ2OocAAcAAAgMAAAAPgAAAAAc6gAAAAgAAAAAAAAAAAAAAAAAAAAAAAAAAAAAAAAAAAAAAAAAAAAAAAAAAAAAAAAAAAAAAAAAAAAAAAAAAAAAAAAAAAAAAAAAAAAAAAAAAAAAAAAAAAAAAAAAAAAAAAAAAAAAAAAAAAAAAAAAAAAAAAAAAAAAAAAAAAAAAAAAAAAAAAAAAAAAAAAAAAAAAAAAAAAAAAAAAAAAAAAAAAAAAAAAAAAAAAAAAAAAAAAAAAAAAAAAAAAAAAAAAAAAAAAAAAAAAAAAAAAAAAAAAAAAAAAAAAAAAAAAAAAAAAAAAAAAAAAAAAAAAAAAAAAAAAAAAAAAAAAAAAAAAAAAAAAAAAAAAAAAAAAAAAAAAAAAAAAAAAAAAAAAAAAAAAAAAAAAAAAAAAAAAAAAAAAAAAAAAAAAAAAAAAAAAAAAAAAAAAAAAAAAAAAAAAAAAAAAAAAAAAAAAAAAAAAAAAAAAAAAAAAAAAAAAAAAAAAAAAAAAAAAAAAAAAAAAAAAAAAAAAAAAAAAAAAAAAAAAAAAAAAAAAAAAAAAAAAAAAAAAAAAAAAAAAAAAAAAAAAAAAAAAAAAAAAAAAAAAAAAAAAAAAAAAAAAAAAAAAAAAAAAAAAAAAAAAAAAAAAAAAAAAAAAAAAAAAAAAAAAAAAAAAAAAAAAAAAAAAAAAAAAAAAAAAAAAAAAAAAAAAAAAAAAAAAAAAAAAAAAAAAAAAAAAAAAAAAAAAAAAAAAAAAAAAAAAAAAAAAAAAAAAAAAAAAAAAAAAAAAAAAAAAAAAAAAAAAAAAAAAAAAAAAAAAAAAAAAAAAAAAAAAAAAAAAAAAAAAAAAAAAAAAAAAAAAAAAAAAAAAAAAAAAAAAAAAAAAAAAAAAAAAAAAAAAAAAAAAAAAAAAAAAAAAAAAAAAAAAAAAAAAAAAAAAAAAAAAAAAAAAAAAAAAAAAAAAAAAAAAAAAAAAAAAAAAAAAAAAAAAAAAAAAAAAAAAAAAAAAAAAAAAAAAAAAAAAAAAAAAAAAAAAAAAAAAAAAAAAAAAAAAAAAAAAAAAAAAAAAAAAAAAAAAAAAAAAAAAAAAAAAAAAAAAAAAAAAAAAAAAAAAAAAAAAAAAAAAAAAAAAAAAAAAAAAAAAAAAAAAAAAAAAAAAAAAAAAAAAAAAAAAAAAAAAAAAAAAAAAAAAAAAAAAAAAAAAAAAAAAAAAAAAAAAAAAAAAAAAAAAAAAAAAAAAAAAAAAAAAAAAAAAAAAAAAAAAAAAAAAAAAAAAAAAAAAAAAAAAAAAAAAAAAAAAAAAAAAAAAAAAAAAAAAAAAAAAAAAAAAAAAAAAAAAAAAAAAAAAAAAAAAAAAAAAAAAAAAAAAAAAAAAAAAAAAAAAAAAAAAAAAAAAAAAAAAAAAAAAAAAAAAAAAAAAAAAAAAAAAAAAAAAAAAAAAAAAAAAAAAAAAAAAAAAAAAAAAAAAAAAAAAAAAAAAAAAAAAAAAAAAAAAAAAAAAAAAAAAAAAAAAAAAAAAAAAAAAAAAAAAAAAAAAAAAAAAAAAAAAAAAAAAAAAAAAAAAAAAAAAAAAAAAAAAAAAAAAAAAAAAAAAAAAAAAAAAAAAAAAAAAAAAAAAAAAAAAAAAAAAAAAAAAAAAAAAAAAAAAAAAAAAAAAAAAAAAAAAAAAAAAAAAAAAAAAAAAAAAAAAAAAAAAAAAAAAAAAAAAAAAAAAAAAAAAAAAAAAAAAAAAAAAAAAAAAAAAAAAAAAAAAAAAAAAAAAAAAAAAAAAAAAAAAAAAAAAAAAAAAAAAAAAAAAAAAAAAAAAAAAAAAAAAAAAAAAAAAAAAAAAAAAAAAAAAAAAAAAAAAAAAAAAAAAAAAAAAAAAAAAAAAAAAAAAAAAAAAAAAAAAAAAAAAAAAAAAAAAAAAAAAAAAAAAAAAAAAAAAAAAAAAAAAAAAAAAAAAAAAAAAAAAAAAAAAAAAAAAAAAAAAAAAAAAAAAAAAAAAAAAAAAAAAAAAAAAAAAAAAAAAAAAAAAAAAAAAAAAAAAAAAAAAAAAAAAAAAAAAAAAAAAAAAAAAAAAAAAAAAAAAAAAAAAAAAAAAAAAAAAAAAAAAAAAAAAAAAAAAAAAAAAAAAAAAAAAAAAAAAAAAAAAAAAAAAAAAAAAAAAAAAAAAAAAAAAAAAAAAAAAAAAAAAAAAAAAAAAAAAAAAAAAAAAAAAAAAAAAAAAAAAAAAAAAAAAAAAAAAAAAAAAAAAAAAAAAAAAAAAAAAAAAAAAAAAAAAAAAAAAAAAAAAAAAAAAAAAAAAAAAAAAAAAAAAAAAAAAAAAAAAAAAAAAAAAAAAAAAAAAAAAAAAAAAAAAAAAAAAAAAAAAAAAAAAAAAAAAAAAAAAAAAAAAAAAAAAAAAAAAAAAAAAAAAAAAAAAAAAAAAAAAAAAAAAAAAAAAAAAAAAAAAAAAAAAAAAAAAAAAAAAAAAAAAAAAAAAAAAAAAAAAAAAAAAAAAAAAAAAAAAAAAAAAAAAAAAAAAAAAAAAAAAAAAAAAAAAAAAAAAAAAAAAAAAAAAAAAAAAAAAAAAAAAAAAAAAAAAAAAAAAAAAAAAAAAAAAAAAAAAAAAAAAAAAAAAAAAAAAAAAAAAAAAAAAAAAAAAAAAAAAAAAAAAAAAAAAAAAAAAAAAAAAAAAAAAAAAAAAAAAAAAAAAAAAAAAAAAAAAAAAAAAAAAAAAAAAAAAAAAAAAAAAAAAAAAAAAAAAAAAAAAAAAAAAAAAAAAAAAAAAAAAAAAAAAAAAAAAEJlcm50IEFuZHJlYXMgSm9obnNlbgAABZADAAIAAAAUAAAQrpAEAAIAAAAUAAAQwpKRAAIAAAADOTIAAJKSAAIAAAADOTIAAOocAAcAAAgMAAAIogAAAAAc6gAAAAgAAAAAAAAAAAAAAAAAAAAAAAAAAAAAAAAAAAAAAAAAAAAAAAAAAAAAAAAAAAAAAAAAAAAAAAAAAAAAAAAAAAAAAAAAAAAAAAAAAAAAAAAAAAAAAAAAAAAAAAAAAAAAAAAAAAAAAAAAAAAAAAAAAAAAAAAAAAAAAAAAAAAAAAAAAAAAAAAAAAAAAAAAAAAAAAAAAAAAAAAAAAAAAAAAAAAAAAAAAAAAAAAAAAAAAAAAAAAAAAAAAAAAAAAAAAAAAAAAAAAAAAAAAAAAAAAAAAAAAAAAAAAAAAAAAAAAAAAAAAAAAAAAAAAAAAAAAAAAAAAAAAAAAAAAAAAAAAAAAAAAAAAAAAAAAAAAAAAAAAAAAAAAAAAAAAAAAAAAAAAAAAAAAAAAAAAAAAAAAAAAAAAAAAAAAAAAAAAAAAAAAAAAAAAAAAAAAAAAAAAAAAAAAAAAAAAAAAAAAAAAAAAAAAAAAAAAAAAAAAAAAAAAAAAAAAAAAAAAAAAAAAAAAAAAAAAAAAAAAAAAAAAAAAAAAAAAAAAAAAAAAAAAAAAAAAAAAAAAAAAAAAAAAAAAAAAAAAAAAAAAAAAAAAAAAAAAAAAAAAAAAAAAAAAAAAAAAAAAAAAAAAAAAAAAAAAAAAAAAAAAAAAAAAAAAAAAAAAAAAAAAAAAAAAAAAAAAAAAAAAAAAAAAAAAAAAAAAAAAAAAAAAAAAAAAAAAAAAAAAAAAAAAAAAAAAAAAAAAAAAAAAAAAAAAAAAAAAAAAAAAAAAAAAAAAAAAAAAAAAAAAAAAAAAAAAAAAAAAAAAAAAAAAAAAAAAAAAAAAAAAAAAAAAAAAAAAAAAAAAAAAAAAAAAAAAAAAAAAAAAAAAAAAAAAAAAAAAAAAAAAAAAAAAAAAAAAAAAAAAAAAAAAAAAAAAAAAAAAAAAAAAAAAAAAAAAAAAAAAAAAAAAAAAAAAAAAAAAAAAAAAAAAAAAAAAAAAAAAAAAAAAAAAAAAAAAAAAAAAAAAAAAAAAAAAAAAAAAAAAAAAAAAAAAAAAAAAAAAAAAAAAAAAAAAAAAAAAAAAAAAAAAAAAAAAAAAAAAAAAAAAAAAAAAAAAAAAAAAAAAAAAAAAAAAAAAAAAAAAAAAAAAAAAAAAAAAAAAAAAAAAAAAAAAAAAAAAAAAAAAAAAAAAAAAAAAAAAAAAAAAAAAAAAAAAAAAAAAAAAAAAAAAAAAAAAAAAAAAAAAAAAAAAAAAAAAAAAAAAAAAAAAAAAAAAAAAAAAAAAAAAAAAAAAAAAAAAAAAAAAAAAAAAAAAAAAAAAAAAAAAAAAAAAAAAAAAAAAAAAAAAAAAAAAAAAAAAAAAAAAAAAAAAAAAAAAAAAAAAAAAAAAAAAAAAAAAAAAAAAAAAAAAAAAAAAAAAAAAAAAAAAAAAAAAAAAAAAAAAAAAAAAAAAAAAAAAAAAAAAAAAAAAAAAAAAAAAAAAAAAAAAAAAAAAAAAAAAAAAAAAAAAAAAAAAAAAAAAAAAAAAAAAAAAAAAAAAAAAAAAAAAAAAAAAAAAAAAAAAAAAAAAAAAAAAAAAAAAAAAAAAAAAAAAAAAAAAAAAAAAAAAAAAAAAAAAAAAAAAAAAAAAAAAAAAAAAAAAAAAAAAAAAAAAAAAAAAAAAAAAAAAAAAAAAAAAAAAAAAAAAAAAAAAAAAAAAAAAAAAAAAAAAAAAAAAAAAAAAAAAAAAAAAAAAAAAAAAAAAAAAAAAAAAAAAAAAAAAAAAAAAAAAAAAAAAAAAAAAAAAAAAAAAAAAAAAAAAAAAAAAAAAAAAAAAAAAAAAAAAAAAAAAAAAAAAAAAAAAAAAAAAAAAAAAAAAAAAAAAAAAAAAAAAAAAAAAAAAAAAAAAAAAAAAAAAAAAAAAAAAAAAAAAAAAAAAAAAAAAAAAAAAAAAAAAAAAAAAAAAAAAAAAAAAAAAAAAAAAAAAAAAAAAAAAAAAAAAAAAAAAAAAAAAAAAAAAAAAAAAAAAAAAAAAAAAAAAAAAAAAAAAAAAAAAAAAAAAAAAAAAAAAAAAAAAAAAAAAAAAAAAAAAAAAAAAAAAAAAAAAAAAAAAAAAAAAAAAAAAAAAAAAAAAAAAAAAAAAAAAAAAAAAAAAAAAAAAAAAAAAAAAAAAAAAAAAAAAAAAAAAAAAAAAAAAAAAAAAAAAAAAAAAAAAAAAAAAAAAAAAAAAAAAAAAAAAAAAAAAAAAAAAAAAAAAAAAAAAAAAAAAAAAAAAAAAAAAAAAAAAAAAAAAAAAAAAAAAAAAAAAAAAAAAAAAAAAAAAAAAAAAAAAAAAAAAAAAAAAAAAAAAAAAAAAAAAAAAAAAAAAAAAAAAAAAAAAAAAAAAAAAAAAAAAAAAAAAAAAAAAAAAAAAAAAAAAAAAAAAAAAAAAAAAAAAAAAAAAAAAAAAAAAAAAAAAAAAAAAAAAAAAAAAAAAAAAAAAAAAAAAAAAAAAAAAAAAAAAAAAAAAAAAAAAAAAAAAAAAAAAAAAAAAAAAAAAAAAAAAAAAAAAAAAAAAAAAAAAAAAAAAAAAAAAAAAAAAAAAAAAAAAAAAAAAAAAAAAAAAAAAAAAAAAAAAAAAAAAAAAAAAAAAAAAAAAAAAAAAAAAAAAAAAAAAAAAAAAAAAAAAAAAAAAAAAAAAAAAAAAAAAAAAAAAAAAAAAAAAAAAAAAAAAAAAAAAAAAAAAAAAAAAAAAAAAAAAAAAAAAAAAAAAAAAAAAAAAAAAAAAAAAAAAAAAAAAAAAAAADIwMjI6MDY6MjIgMTY6MTk6MzQAMjAyMjowNjoyMiAxNjoxOTozNAAAAEIAZQByAG4AdAAgAEEAbgBkAHIAZQBhAHMAIABKAG8AaABuAHMAZQBuAAAA/+ELKGh0dHA6Ly9ucy5hZG9iZS5jb20veGFwLzEuMC8APD94cGFja2V0IGJlZ2luPSfvu78nIGlkPSdXNU0wTXBDZWhpSHpyZVN6TlRjemtjOWQnPz4NCjx4OnhtcG1ldGEgeG1sbnM6eD0iYWRvYmU6bnM6bWV0YS8iPjxyZGY6UkRGIHhtbG5zOnJkZj0iaHR0cDovL3d3dy53My5vcmcvMTk5OS8wMi8yMi1yZGYtc3ludGF4LW5zIyI+PHJkZjpEZXNjcmlwdGlvbiByZGY6YWJvdXQ9InV1aWQ6ZmFmNWJkZDUtYmEzZC0xMWRhLWFkMzEtZDMzZDc1MTgyZjFiIiB4bWxuczpkYz0iaHR0cDovL3B1cmwub3JnL2RjL2VsZW1lbnRzLzEuMS8iLz48cmRmOkRlc2NyaXB0aW9uIHJkZjphYm91dD0idXVpZDpmYWY1YmRkNS1iYTNkLTExZGEtYWQzMS1kMzNkNzUxODJmMWIiIHhtbG5zOnhtcD0iaHR0cDovL25zLmFkb2JlLmNvbS94YXAvMS4wLyI+PHhtcDpDcmVhdGVEYXRlPjIwMjItMDYtMjJUMTY6MTk6MzQuOTE5PC94bXA6Q3JlYXRlRGF0ZT48L3JkZjpEZXNjcmlwdGlvbj48cmRmOkRlc2NyaXB0aW9uIHJkZjphYm91dD0idXVpZDpmYWY1YmRkNS1iYTNkLTExZGEtYWQzMS1kMzNkNzUxODJmMWIiIHhtbG5zOmRjPSJodHRwOi8vcHVybC5vcmcvZGMvZWxlbWVudHMvMS4xLyI+PGRjOmNyZWF0b3I+PHJkZjpTZXEgeG1sbnM6cmRmPSJodHRwOi8vd3d3LnczLm9yZy8xOTk5LzAyLzIyLXJkZi1zeW50YXgtbnMjIj48cmRmOmxpPkJlcm50IEFuZHJlYXMgSm9obnNlbjwvcmRmOmxpPjwvcmRmOlNlcT4NCgkJCTwvZGM6Y3JlYXRvcj48L3JkZjpEZXNjcmlwdGlvbj48L3JkZjpSREY+PC94OnhtcG1ldGE+DQogICAgICAgICAgICAgICAgICAgICAgICAgICAgICAgICAgICAgICAgICAgICAgICAgICAgICAgICAgICAgICAgICAgICAgICAgICAgICAgICAgICAgICAgICAgICAgICAgICAgCiAgICAgICAgICAgICAgICAgICAgICAgICAgICAgICAgICAgICAgICAgICAgICAgICAgICAgICAgICAgICAgICAgICAgICAgICAgICAgICAgICAgICAgICAgICAgICAgICAgICAKICAgICAgICAgICAgICAgICAgICAgICAgICAgICAgICAgICAgICAgICAgICAgICAgICAgICAgICAgICAgICAgICAgICAgICAgICAgICAgICAgICAgICAgICAgICAgICAgICAgIAogICAgICAgICAgICAgICAgICAgICAgICAgICAgICAgICAgICAgICAgICAgICAgICAgICAgICAgICAgICAgICAgICAgICAgICAgICAgICAgICAgICAgICAgICAgICAgICAgICAgCiAgICAgICAgICAgICAgICAgICAgICAgICAgICAgICAgICAgICAgICAgICAgICAgICAgICAgICAgICAgICAgICAgICAgICAgICAgICAgICAgICAgICAgICAgICAgICAgICAgICAKICAgICAgICAgICAgICAgICAgICAgICAgICAgICAgICAgICAgICAgICAgICAgICAgICAgICAgICAgICAgICAgICAgICAgICAgICAgICAgICAgICAgICAgICAgICAgICAgICAgIAogICAgICAgICAgICAgICAgICAgICAgICAgICAgICAgICAgICAgICAgICAgICAgICAgICAgICAgICAgICAgICAgICAgICAgICAgICAgICAgICAgICAgICAgICAgICAgICAgICAgCiAgICAgICAgICAgICAgICAgICAgICAgICAgICAgICAgICAgICAgICAgICAgICAgICAgICAgICAgICAgICAgICAgICAgICAgICAgICAgICAgICAgICAgICAgICAgICAgICAgICAKICAgICAgICAgICAgICAgICAgICAgICAgICAgICAgICAgICAgICAgICAgICAgICAgICAgICAgICAgICAgICAgICAgICAgICAgICAgICAgICAgICAgICAgICAgICAgICAgICAgIAogICAgICAgICAgICAgICAgICAgICAgICAgICAgICAgICAgICAgICAgICAgICAgICAgICAgICAgICAgICAgICAgICAgICAgICAgICAgICAgICAgICAgICAgICAgICAgICAgICAgCiAgICAgICAgICAgICAgICAgICAgICAgICAgICAgICAgICAgICAgICAgICAgICAgICAgICAgICAgICAgICAgICAgICAgICAgICAgICAgICAgICAgICAgICAgICAgICAgICAgICAKICAgICAgICAgICAgICAgICAgICAgICAgICAgICAgICAgICAgICAgICAgICAgICAgICAgICAgICAgICAgICAgICAgICAgICAgICAgICAgICAgICAgICAgICAgICAgICAgICAgIAogICAgICAgICAgICAgICAgICAgICAgICAgICAgICAgICAgICAgICAgICAgICAgICAgICAgICAgICAgICAgICAgICAgICAgICAgICAgICAgICAgICAgICAgICAgICAgICAgICAgCiAgICAgICAgICAgICAgICAgICAgICAgICAgICAgICAgICAgICAgICAgICAgICAgICAgICAgICAgICAgICAgICAgICAgICAgICAgICAgICAgICAgICAgICAgICAgICAgICAgICAKICAgICAgICAgICAgICAgICAgICAgICAgICAgICAgICAgICAgICAgICAgICAgICAgICAgICAgICAgICAgICAgICAgICAgICAgICAgICAgICAgICAgICAgICAgICAgICAgICAgIAogICAgICAgICAgICAgICAgICAgICAgICAgICAgICAgICAgICAgICAgICAgICAgICAgICAgICAgICAgICAgICAgICAgICAgICAgICAgICAgICAgICAgICAgICAgICAgICAgICAgCiAgICAgICAgICAgICAgICAgICAgICAgICAgICAgICAgICAgICAgICAgICAgICAgICAgICAgICAgICAgICAgICAgICAgICAgICAgICAgICAgICAgICAgICAgICAgICAgICAgICAKICAgICAgICAgICAgICAgICAgICAgICAgICAgICAgICAgICAgICAgICAgICAgICAgICAgICAgICAgICAgICAgICAgICAgICAgICAgICAgICAgICAgICAgICAgICAgICAgICAgIAogICAgICAgICAgICAgICAgICAgICAgICAgICAgICAgICAgICAgICAgICAgICAgICAgICAgICAgICAgICAgICAgICAgICAgICAgICAgICAgICAgICAgICAgICAgICAgICAgICAgCiAgICAgICAgICAgICAgICAgICAgICAgICAgICAgICAgICAgICAgICAgICAgICAgICAgICAgICAgICAgICAgICAgICAgICAgICAgICAgICAgICAgICAgICAgICAgICAgICAgICAKICAgICAgICAgICAgICAgICAgICAgICAgICAgIDw/eHBhY2tldCBlbmQ9J3cnPz7/2wBDAAcFBQYFBAcGBQYIBwcIChELCgkJChUPEAwRGBUaGRgVGBcbHichGx0lHRcYIi4iJSgpKywrGiAvMy8qMicqKyr/2wBDAQcICAoJChQLCxQqHBgcKioqKioqKioqKioqKioqKioqKioqKioqKioqKioqKioqKioqKioqKioqKioqKioqKir/wAARCABBAEsDASIAAhEBAxEB/8QAHwAAAQUBAQEBAQEAAAAAAAAAAAECAwQFBgcICQoL/8QAtRAAAgEDAwIEAwUFBAQAAAF9AQIDAAQRBRIhMUEGE1FhByJxFDKBkaEII0KxwRVS0fAkM2JyggkKFhcYGRolJicoKSo0NTY3ODk6Q0RFRkdISUpTVFVWV1hZWmNkZWZnaGlqc3R1dnd4eXqDhIWGh4iJipKTlJWWl5iZmqKjpKWmp6ipqrKztLW2t7i5usLDxMXGx8jJytLT1NXW19jZ2uHi4+Tl5ufo6erx8vP09fb3+Pn6/8QAHwEAAwEBAQEBAQEBAQAAAAAAAAECAwQFBgcICQoL/8QAtREAAgECBAQDBAcFBAQAAQJ3AAECAxEEBSExBhJBUQdhcRMiMoEIFEKRobHBCSMzUvAVYnLRChYkNOEl8RcYGRomJygpKjU2Nzg5OkNERUZHSElKU1RVVldYWVpjZGVmZ2hpanN0dXZ3eHl6goOEhYaHiImKkpOUlZaXmJmaoqOkpaanqKmqsrO0tba3uLm6wsPExcbHyMnK0tPU1dbX2Nna4uPk5ebn6Onq8vP09fb3+Pn6/9oADAMBAAIRAxEAPwD6RooprMqKWYhVHUmgB1J061TTV9Olm8mK+t3k6BBKCT+Gaqalr2m6adt7eRxuP+Wane5/4CMmk2lqxNpK7Nbeo6mgOrdD+tcNefEOwiz9ns7qb3YrGD+eT+lYs/xU8l8/2PuUHnF3z/6Bisvb0r25jH6xS/mPVaK5zSdfTU9Mt7+xk3QzrlRL2IOCrYzgg8f0NbNnfxXm9Fyk0WPMib7y56H3B7EcH8DWy1Nk7q5aooooGB6V4Z8YPEmrxeKBp2y5h06GJWQqjbJWIySSBg46Y7YNe51xHjWWWGZVjlKrI2CoP+yP8aAPC7XXJmZT5jZB/irstKa51+4sbO0eOOa6ZlLPwMqNxY+vAp/ivS7rWfCUzWnmSXNm4uI4403NLjIKgDnODWAJbnwZqGg3N3Li4jdLua32EGJTwUPvtzn3rnxEYyh7xz4mMJQ989Li+HltHH5mparM6j7xiRY1H/AmzVO40z4d2Mmy+1S0dx1EupAn8QmK4z4g+GPGeo+Lry6Fhearp0kmbJrf95GkRAKgKPun1OOTzz1rJtPhj40vFXGkrZIejXU6Rfpkn9Kx5IQdowOf2cIO0aZ7fp1vYW2lwJo4t1sNpeH7O25GBPJDZ5ye/NVNWvJbe1N9ZSxx39mC9uGfAm7tCfUPjHs20jpWb4X0K48L+D4NIurtb2aOR5WeJTsTcc7FzzgcnnHU8Cuc8RXAjkDj7ysCD75rtjsd0dj2LRdXtde0S01SwYtb3cQkTPUZ7H3B4PuKvV558H7pjpGtacfuWWqy+UP7qSAOAPxY/nXodMad0Nd1jjZ5GCqoyWY4AFeceLNTsdQ1DzNNvY7tI1CyhJQVQ84OPw6ir3xYv57Xw1DbwFlS5lxIw7gDOD9T/KvGNN1QaTr1nfON0cMo80EZyh4YfkSaBnpemaisMqKOjcAd81558QtOFn4vv4lLsJNk53uWPzrnr6ZyAO3T0rtda1bSPCZNy93bXty3z29rBIGZ88gsf4V/X0rySfxFeS6/Pq+oRw30ly+6eKYHYw6bRjBXAAAxjHvWVWHPGyMa1N1I2R3ekfGTU9J0O106XSLe8e1iESXD3DIWVemVAPOPftUd38YvEd3kW8GnWQP9yBpG/N2I/Sn+GI/hz4tcWzQahpeonpaPeZV/9xyvzfQ811I8BeCrP5ms55yO012+PyXFY8ta1rmPLXta55pd+IvEOtyBbrWb+RmPyxwymMZ9lTA/Suv1q2lmm06C9fyp1tY3v3Y8RlVy7N7gDJ9810Et5pOhWrHTLaz0uIDDTIoU/wDfZ5NctZWF58RNSbS9HSWLSWcfb791KmZQc7F9B+p7+lXTjKD953bKhGUH7zu2d/8ABuJrjw5qOtmNok1e/e4hVhyIgAifoteh1X0+xg0zToLKzQRwQIERQOgFWK6DpSsrFXUdOtNWsZLPUIVmgkHKnt7g9j714z4r+EWq2kkk+gEX9tyRHkCVR6Y6H8Pyr3CigZ8eappd/pkrR3tlPbOp5EkRU/rVQxmaESYxnrx3r7MkjSVCkqK6nqGGRWTdeEvD17zc6LYsf7wgVT+Y5oA+TbPS5mTz13IwcNGw4II7j8a9d07wx4213S7a8jmSGO4jDBmZFP1xtJ969Sg8G+HbaYSxaTb716F1L4/A5rbAAGAMAdhUyjzEyipHlemfBeOa5S58UalLfODnygxx9Mn+leladptnpNmlrp1ulvCgwEQYq1RRGKjsEYqOwUUUVRQUUUUAFFFFABRRRQAUUUUAFFFFAH//2Q==;" vertex="1" parent="1">
          <mxGeometry x="40" y="140" width="75" height="65" as="geometry" />
        </mxCell>
        <mxCell id="Df6rYxIK3cVN9kQUtpdk-12" value="Visma HRM" style="text;html=1;resizable=0;autosize=1;align=center;verticalAlign=middle;points=[];fillColor=none;strokeColor=none;rounded=0;" vertex="1" parent="1">
          <mxGeometry x="32.5" y="205" width="90" height="30" as="geometry" />
        </mxCell>
      </root>
    </mxGraphModel>
  </diagram>
</mxfile>
